<svg xmlns="http://www.w3.org/2000/svg" viewBox="0 0 56 56"><path d="M36.985 0H7.963C7.155 0 6.5.655 6.5 1.926V55c0 .345.655 1 1.463 1h40.074c.808 0 1.463-.655 1.463-1V12.978c0-.696-.093-.92-.257-1.085L37.607.257A.884.884 0 0 0 36.985 0z" fill="#e9e9e0"/><path d="M48.037 56H7.963A1.463 1.463 0 0 1 6.5 54.537V39h43v15.537c0 .808-.655 1.463-1.463 1.463z" fill="#ffc14f"/><g fill="#fff"><path d="M20.067 53l3.527-10.063h1.627L28.722 53h-1.695l-.725-2.092h-3.787L21.776 53h-1.709zm2.83-3.199h3.008l-1.49-4.348-1.518 4.348zM32.536 53h-1.668V42.924h1.668V53z"/></g><path d="M37.5 11v.461a10.038 10.038 0 0 0-6.502 6.44A3.959 3.959 0 0 0 28.5 17c-1.859 0-3.411 1.28-3.858 3H21.5v-2h-6v6h6v-2h2.921a7.984 7.984 0 0 1-4.389 6.163C19.364 26.884 18.04 26 16.5 26c-2.206 0-4 1.794-4 4s1.794 4 4 4c2.146 0 3.888-1.702 3.982-3.825a10.007 10.007 0 0 0 5.524-6.073A3.959 3.959 0 0 0 28.5 25c1.859 0 3.411-1.28 3.858-3H35.5v2h6v-6h-6v2h-2.931a8.01 8.01 0 0 1 5.222-6.518A4.002 4.002 0 0 0 41.5 16c2.206 0 4-1.794 4-4v-1h-8zm-18 11h-2v-2h2v2zm-3 10c-1.103 0-2-.897-2-2s.897-2 2-2 2 .897 2 2-.897 2-2 2zm21-12h2v2h-2v-2zm-9 3c-1.103 0-2-.897-2-2s.897-2 2-2 2 .897 2 2-.897 2-2 2zm13-9a1.997 1.997 0 0 1-1.704-.964c.232-.021.466-.036.704-.036h2.731a2 2 0 0 1-1.731 1z" fill="#c8bdb8"/><path fill="#d9d7ca" d="M37.5.151V12h11.849z"/></svg>