<svg xmlns="http://www.w3.org/2000/svg" viewBox="0 0 56 56"><path d="M36.985 0H7.963C7.155 0 6.5.655 6.5 1.926V55c0 .345.655 1 1.463 1h40.074c.808 0 1.463-.655 1.463-1V12.978c0-.696-.093-.92-.257-1.085L37.607.257A.884.884 0 0 0 36.985 0z" fill="#e9e9e0"/><path d="M48.037 56H7.963A1.463 1.463 0 0 1 6.5 54.537V39h43v15.537c0 .808-.655 1.463-1.463 1.463z" fill="#5889c4"/><g fill="#fff"><path d="M17.385 53h-1.641V42.924h2.898c.428 0 .852.068 1.271.205.419.137.795.342 1.128.615.333.273.602.604.807.991s.308.822.308 1.306c0 .511-.087.973-.26 1.388a2.9 2.9 0 0 1-.725 1.046c-.31.282-.684.501-1.121.656s-.921.232-1.449.232h-1.217V53zm0-8.832v3.992h1.504c.2 0 .398-.034.595-.103.196-.068.376-.18.54-.335.164-.155.296-.371.396-.649.1-.278.15-.622.15-1.032 0-.164-.023-.354-.068-.567a1.637 1.637 0 0 0-.28-.615 1.657 1.657 0 0 0-.595-.492c-.255-.132-.593-.198-1.012-.198h-1.23zM29.73 50.238c0 .364-.075.718-.226 1.06s-.362.643-.636.902-.611.467-1.012.622a3.771 3.771 0 0 1-1.367.232c-.219 0-.444-.012-.677-.034s-.467-.062-.704-.116a3.686 3.686 0 0 1-.677-.226 2.17 2.17 0 0 1-.554-.349l.287-1.176c.127.073.289.144.485.212s.398.132.608.191c.209.06.419.107.629.144.209.036.405.055.588.055.556 0 .982-.13 1.278-.39.296-.26.444-.645.444-1.155 0-.31-.105-.574-.314-.793-.21-.219-.472-.417-.786-.595s-.654-.355-1.019-.533a6.173 6.173 0 0 1-1.025-.629 3.281 3.281 0 0 1-.793-.854c-.21-.328-.314-.738-.314-1.23 0-.446.082-.843.246-1.189s.385-.641.663-.882.602-.426.971-.554.759-.191 1.169-.191c.419 0 .843.039 1.271.116.428.077.774.203 1.039.376a13.31 13.31 0 0 1-.191.39l-.205.396c-.064.123-.119.226-.164.308a1.263 1.263 0 0 1-.082.137c-.055-.027-.116-.063-.185-.109s-.167-.091-.294-.137a2.097 2.097 0 0 0-.506-.096 4.781 4.781 0 0 0-.807.014c-.183.019-.355.07-.52.157s-.31.193-.438.321a1.464 1.464 0 0 0-.301.431 1.1 1.1 0 0 0-.109.458c0 .364.104.658.314.882.209.224.469.419.779.588.31.169.647.333 1.012.492.364.159.704.354 1.019.581s.576.513.786.854c.213.342.318.781.318 1.319zM39.629 47.682c0 .829-.089 1.538-.267 2.126s-.403 1.08-.677 1.477-.581.709-.923.937-.672.398-.991.513a4.094 4.094 0 0 1-.875.219c-.264.03-.46.046-.587.046h-3.814V42.924h3.035c.848 0 1.593.135 2.235.403s1.176.627 1.6 1.073.74.955.95 1.524c.209.57.314 1.156.314 1.758zm-4.867 4.115c1.112 0 1.914-.355 2.406-1.066s.738-1.741.738-3.09c0-.419-.05-.834-.15-1.244-.101-.41-.294-.781-.581-1.114s-.677-.602-1.169-.807-1.13-.308-1.914-.308h-.957v7.629h1.627z"/></g><path d="M38.894 11.163a1.001 1.001 0 0 0-1.384.291c-1.433 2.196-3.979 5.164-5.19 6.375l-2.788 2.788-2.828-2.828L29.49 15c1.771-1.771 6.271-5.442 8.116-6.102.04-.006.091-.015.112-.02.521-.117.827-.617.735-1.143-.093-.526-.616-.885-1.143-.814l-.283.062c-2.439.813-7.457 5.108-8.952 6.604l-7.185 7.185c-.095-.004-.189-.014-.285-.014a6.072 6.072 0 0 0-5.983 5.016l-.108.073-.02.536c-.034.942-.302 4.052-2.343 4.546a1.057 1.057 0 0 0-.793 1.152l.162.919h7l2.086-.03a6.114 6.114 0 0 0 6.107-6.107c0-.193-.011-.383-.029-.572l7.049-7.048c1.305-1.305 3.925-4.358 5.451-6.696a1 1 0 0 0-.29-1.384zM20.606 30.97h-3.739l.015.03h-1.661c.887-1.341 1.161-3.037 1.244-4.045l.082-.504a4.08 4.08 0 0 1 4.06-3.694c.121 0 .235.025.354.036l.167.021a4.09 4.09 0 0 1 2.6 1.411c.058.069.118.135.171.208a4.176 4.176 0 0 1 .368.605c.063.126.124.254.174.387.03.08.052.164.077.247.045.147.091.294.12.449l.005.026c.041.234.072.471.072.716a4.115 4.115 0 0 1-4.109 4.107zm4.91-7.723l-.02-.026a6.128 6.128 0 0 0-2.332-1.895l2.123-2.123 2.828 2.828-2.071 2.07a5.893 5.893 0 0 0-.528-.854z" fill="#c8bdb8"/><path fill="#d9d7ca" d="M37.5.151V12h11.849z"/></svg>